<?xml version="1.0" encoding="iso-8859-1"?>
<!-- Generator: Adobe Illustrator 19.0.0, SVG Export Plug-In . SVG Version: 6.00 Build 0)  -->
<svg version="1.1" id="Layer_1" xmlns="http://www.w3.org/2000/svg" xmlns:xlink="http://www.w3.org/1999/xlink" x="0px" y="0px"
	 viewBox="0 0 512 512" style="enable-background:new 0 0 512 512;" xml:space="preserve">
<path style="fill:#FFD652;" d="M486.324,330.5h-35.557v-94.995c0-13.189-10.693-23.882-23.882-23.882H307.131
	c-1.109,0-2.224,0.17-3.245,0.604c-3.068,1.306-4.903,4.24-4.899,7.363l0.085,99.765H1.794v136.39
	c0,8.793,7.128,15.921,15.921,15.921h476.569c8.793,0,15.921-7.128,15.921-15.921V354.382
	C510.206,341.192,499.514,330.5,486.324,330.5z"/>
<path style="fill:#458FDE;" d="M307.125,147.939H9.755c-4.396,0-7.961,3.563-7.961,7.961v193.175c0,4.397,3.564,7.961,7.961,7.961
	h297.37c4.397,0,7.961-3.563,7.961-7.961V155.9C315.085,151.502,311.522,147.939,307.125,147.939z"/>
<rect x="1.794" y="402.144" style="fill:#FB9D46;" width="508.411" height="21.228"/>
<path style="fill:#FF7452;" d="M1.794,423.373v32.373c0,8.793,7.128,15.921,15.921,15.921h476.569
	c8.793,0,15.921-7.128,15.921-15.921v-32.373H1.794z"/>
<path style="fill:#FDC854;" d="M510.206,354.382c0-13.189-10.693-23.882-23.882-23.882h-35.557v-94.995
	c0-13.189-10.693-23.882-23.882-23.882H307.131c-1.109,0-2.224,0.17-3.245,0.604c-3.068,1.306-4.903,4.24-4.899,7.363l0.085,110.91
	H1.794v71.645h508.411V354.382z"/>
<g>
	<path style="fill:#89DCFC;" d="M413.087,237.097h-76.421c-4.397,0-7.961,3.564-7.961,7.961v67.93c0,4.396,3.563,7.961,7.961,7.961
		h76.421c4.397,0,7.961-3.564,7.961-7.961v-67.93C421.048,240.661,417.485,237.097,413.087,237.097z"/>
	<polygon style="fill:#89DCFC;" points="390.798,237.097 368.509,237.097 328.706,276.9 328.706,299.189 	"/>
</g>
<path style="fill:#FFFFFF;" d="M390.798,237.097l-62.092,62.092v13.798c0,0.417,0.041,0.824,0.103,1.224l77.114-77.114H390.798z"/>
<path style="fill:#89DCFC;" d="M413.087,237.097h-7.164l-77.114,77.114c0.565,3.649,3.603,6.476,7.352,6.711l82-82
	C416.783,237.783,415.016,237.097,413.087,237.097z"/>
<path style="fill:#FFFFFF;" d="M418.161,238.923l-82,82c0.168,0.011,0.334,0.025,0.505,0.025h27.066l57.316-57.316v-18.575
	C421.048,242.589,419.925,240.383,418.161,238.923z"/>
<path style="fill:#89DCFC;" d="M363.732,320.948h49.355c4.397,0,7.961-3.564,7.961-7.961v-49.355L363.732,320.948z"/>
<g>
	<path style="fill:#808080;" d="M124.386,368.711c-39.505,0-71.645,32.139-71.645,71.645S84.881,512,124.386,512
		s71.645-32.139,71.645-71.645S163.892,368.711,124.386,368.711z"/>
	<path style="fill:#808080;" d="M374.877,368.711c-39.505,0-71.645,32.139-71.645,71.645S335.372,512,374.877,512
		s71.645-32.139,71.645-71.645S414.382,368.711,374.877,368.711z"/>
</g>
<g>
	<path style="fill:#666666;" d="M374.877,393.654c-25.752,0-46.702,20.95-46.702,46.702s20.95,46.702,46.702,46.702
		c25.752,0,46.702-20.95,46.702-46.702S400.63,393.654,374.877,393.654z"/>
	<path style="fill:#666666;" d="M124.386,393.654c-25.752,0-46.702,20.95-46.702,46.702s20.95,46.702,46.702,46.702
		s46.702-20.95,46.702-46.702S150.138,393.654,124.386,393.654z"/>
</g>
<g>
	<path style="fill:#AFF078;" d="M124.386,402.676c-20.777,0-37.68,16.903-37.68,37.68s16.903,37.68,37.68,37.68
		s37.68-16.903,37.68-37.68S145.163,402.676,124.386,402.676z"/>
	<path style="fill:#AFF078;" d="M374.877,402.676c-20.777,0-37.68,16.903-37.68,37.68s16.903,37.68,37.68,37.68
		s37.68-16.903,37.68-37.68S395.655,402.676,374.877,402.676z"/>
</g>
<path style="fill:#FF7452;" d="M357.895,346.421h-21.228c-4.397,0-7.961-3.563-7.961-7.961s3.563-7.961,7.961-7.961h21.228
	c4.397,0,7.961,3.563,7.961,7.961S362.292,346.421,357.895,346.421z"/>
<g>
	<path style="fill:#AFF078;" d="M139.946,46.777H96.546L83.133,5.501C82.067,2.22,79.01,0,75.562,0s-6.505,2.22-7.571,5.501
		L54.579,46.777H11.178c-3.448,0-6.505,2.22-7.571,5.501c-1.066,3.28,0.102,6.873,2.891,8.9l35.112,25.511L28.2,127.967
		c-2.32,7.136,6.174,13.314,12.25,8.9l35.112-25.51l35.112,25.51c6.072,4.413,14.553-1.814,12.25-8.9l-13.411-41.278l35.112-25.511
		c2.789-2.027,3.958-5.62,2.891-8.9C146.452,48.997,143.395,46.777,139.946,46.777z"/>
	<path style="fill:#AFF078;" d="M296.333,46.777h-43.401L239.521,5.501C238.455,2.22,235.398,0,231.95,0s-6.505,2.22-7.571,5.501
		l-13.412,41.277h-43.401c-3.448,0-6.505,2.22-7.571,5.501c-1.066,3.28,0.102,6.873,2.891,8.9l35.112,25.511l-13.411,41.278
		c-2.32,7.136,6.174,13.314,12.25,8.9l35.112-25.51l35.112,25.51c6.072,4.412,14.552-1.813,12.25-8.9L265.9,86.69l35.112-25.511
		c2.79-2.027,3.958-5.62,2.892-8.9C302.839,48.997,299.782,46.777,296.333,46.777z"/>
	<path style="fill:#AFF078;" d="M460.292,52.278c-1.066-3.281-4.122-5.501-7.571-5.501h-43.402L395.909,5.501
		C394.843,2.22,391.786,0,388.338,0s-6.505,2.22-7.571,5.501l-13.412,41.277h-43.402c-3.448,0-6.505,2.22-7.571,5.501
		c-1.066,3.28,0.102,6.873,2.892,8.9l35.112,25.511l-13.412,41.278c-2.319,7.137,6.174,13.314,12.25,8.9l35.112-25.51l35.112,25.51
		c6.072,4.412,14.552-1.813,12.25-8.9L422.287,86.69l35.112-25.511C460.19,59.151,461.358,55.558,460.292,52.278
		C459.227,48.997,461.358,55.558,460.292,52.278z"/>
</g>
<g>
	<path style="fill:#89DCFC;" d="M79.807,215.869h-38.21c-4.396,0-7.961,3.563-7.961,7.961v87.035c0,4.397,3.564,7.961,7.961,7.961
		s7.961-3.563,7.961-7.961v-34.496h21.759c4.396,0,7.961-3.563,7.961-7.961c0-4.397-3.564-7.961-7.961-7.961H49.557V231.79h30.25
		c4.396,0,7.961-3.563,7.961-7.961C87.768,219.432,84.205,215.869,79.807,215.869z"/>
	<path style="fill:#89DCFC;" d="M141.369,215.869h-36.088c-4.396,0-7.961,3.563-7.961,7.961v87.035c0,4.397,3.564,7.961,7.961,7.961
		c4.396,0,7.961-3.563,7.961-7.961v-26.022c0.176,0.012,0.352,0.018,0.531,0.018h10.301l7.482,28.056
		c0.95,3.56,4.168,5.911,7.687,5.911c0.679,0,1.369-0.088,2.057-0.271c4.248-1.133,6.773-5.496,5.64-9.744l-6.388-23.953h0.818
		c4.396,0,7.961-3.563,7.961-7.961v-53.07C149.329,219.432,145.766,215.869,141.369,215.869z M113.241,268.956v-37.167h20.167
		v37.149h-19.636C113.594,268.939,113.418,268.945,113.241,268.956z"/>
	<path style="fill:#89DCFC;" d="M209.298,231.79c4.396,0,7.961-3.563,7.961-7.961c0-4.397-3.564-7.961-7.961-7.961h-38.21
		c-4.396,0-7.961,3.563-7.961,7.961v87.035c0,4.397,3.564,7.961,7.961,7.961h38.21c4.396,0,7.961-3.563,7.961-7.961
		s-3.564-7.961-7.961-7.961h-30.25v-26.535h21.759c4.396,0,7.961-3.563,7.961-7.961c0-4.397-3.564-7.961-7.961-7.961h-21.759V231.79
		L209.298,231.79L209.298,231.79z"/>
	<path style="fill:#89DCFC;" d="M275.105,302.904h-30.25v-26.535h21.759c4.397,0,7.961-3.563,7.961-7.961
		c0-4.397-3.563-7.961-7.961-7.961h-21.759V231.79h30.25c4.397,0,7.961-3.563,7.961-7.961c0-4.397-3.563-7.961-7.961-7.961h-38.21
		c-4.396,0-7.961,3.563-7.961,7.961v87.035c0,4.397,3.564,7.961,7.961,7.961h38.21c4.397,0,7.961-3.563,7.961-7.961
		S279.503,302.904,275.105,302.904z"/>
</g>
<g>
</g>
<g>
</g>
<g>
</g>
<g>
</g>
<g>
</g>
<g>
</g>
<g>
</g>
<g>
</g>
<g>
</g>
<g>
</g>
<g>
</g>
<g>
</g>
<g>
</g>
<g>
</g>
<g>
</g>
</svg>
